<?xml version="1.0" standalone="no"?>
<!DOCTYPE svg PUBLIC "-//W3C//DTD SVG 20010904//EN"
 "http://www.w3.org/TR/2001/REC-SVG-20010904/DTD/svg10.dtd">
<svg version="1.0" xmlns="http://www.w3.org/2000/svg"
 width="4000.000000pt" height="4000.000000pt" viewBox="0 0 4000.000000 4000.000000"
 preserveAspectRatio="xMidYMid meet">

<g transform="translate(0.000000,4000.000000) scale(0.100000,-0.100000)"
fill="#000000" stroke="none">
<path d="M0 20000 l0 -20000 20000 0 20000 0 0 20000 0 20000 -20000 0 -20000
0 0 -20000z m17980 15955 c35 -9 80 -25 100 -36 l35 -20 -50 5 c-53 4 -139 20
-215 38 -25 6 -76 17 -115 24 l-70 13 126 -4 c71 -2 153 -11 189 -20z m948
-308 c34 -21 62 -40 62 -42 0 -8 -199 91 -247 122 -29 19 -53 37 -53 39 0 7
178 -82 238 -119z m-2628 -142 c-7 -8 -9 -15 -5 -15 5 0 -16 -26 -46 -57 -139
-147 -302 -365 -315 -421 -4 -15 -17 -38 -29 -52 -20 -22 -158 -213 -179 -247
-4 -7 -9 -21 -11 -30 -2 -10 -7 -27 -11 -38 -7 -20 -7 -20 14 -1 12 11 25 16
29 13 3 -4 1 -7 -6 -7 -7 0 -9 -4 -6 -10 3 -5 1 -10 -5 -10 -6 0 -8 -4 -5 -10
3 -5 2 -10 -4 -10 -6 0 -7 -7 -4 -17 4 -11 3 -14 -5 -9 -8 5 -10 1 -5 -10 4
-12 3 -15 -5 -10 -8 5 -10 2 -6 -8 3 -9 1 -16 -6 -16 -6 0 -8 -4 -5 -10 3 -5
2 -10 -4 -10 -6 0 -8 -7 -5 -15 4 -8 -1 -17 -9 -21 -10 -3 -13 -12 -10 -22 4
-9 3 -14 -1 -10 -5 4 -24 -25 -43 -63 -19 -38 -43 -74 -54 -79 -27 -15 -25 -4
23 118 23 59 41 110 40 114 -3 13 51 123 55 111 2 -7 -1 -21 -7 -32 -6 -12 -8
-21 -6 -21 3 0 12 13 20 28 10 20 11 33 4 46 -8 15 -8 17 2 11 10 -6 12 -3 7
10 -5 11 12 53 50 124 108 202 229 373 371 526 81 87 231 219 182 160z m3221
-366 c42 -46 96 -110 122 -142 40 -51 45 -61 34 -78 -19 -30 -16 -32 -102 81
-27 36 -54 70 -60 75 -50 48 -69 77 -57 84 10 6 -8 28 -65 78 -145 130 -148
135 -47 60 55 -41 134 -112 175 -158z m68 53 c17 -12 71 -68 121 -124 85 -95
108 -138 76 -138 -11 0 -296 275 -296 286 0 12 75 -6 99 -24z m-127 -110 c82
-87 160 -212 132 -212 -3 0 -20 6 -37 14 -18 8 -45 19 -62 24 -16 5 -37 13
-47 17 -11 4 -17 1 -20 -12 -2 -13 -20 2 -71 61 -37 44 -67 83 -67 88 0 12 93
-65 119 -98 34 -43 32 -25 -3 25 -29 41 -34 56 -31 92 1 24 -1 54 -6 66 -8 21
-7 22 9 14 10 -5 48 -41 84 -79z m-3392 74 c0 -2 -8 -10 -17 -17 -16 -13 -17
-12 -4 4 13 16 21 21 21 13z m3180 -83 c78 -85 103 -120 91 -127 -18 -11 -181
158 -181 188 0 22 37 -3 90 -61z m-3230 23 c0 -2 -8 -10 -17 -17 -16 -13 -17
-12 -4 4 13 16 21 21 21 13z m-50 -60 c0 -2 -8 -10 -17 -17 -16 -13 -17 -12
-4 4 13 16 21 21 21 13z m3267 -228 c62 -86 96 -157 85 -175 -17 -25 -90 -35
-139 -19 -28 9 -88 77 -131 148 -28 47 -31 59 -22 82 9 26 12 27 66 22 42 -3
56 -1 61 10 3 8 9 14 13 14 4 0 34 -37 67 -82z m-639 39 c24 -19 64 -97 58
-113 -13 -33 -78 41 -100 113 -6 19 -4 22 11 16 10 -3 24 -11 31 -16z m289 -9
c33 -35 77 -121 88 -175 5 -26 3 -32 -14 -38 -25 -8 -51 6 -103 53 -33 30 -78
97 -78 117 0 3 12 5 26 5 21 0 24 3 19 20 -6 20 9 50 24 50 4 0 21 -15 38 -32z
m-412 -5 c36 -27 47 -59 52 -153 l4 -85 -20 25 c-11 14 -21 29 -21 33 0 5 -9
5 -20 2 -31 -10 -57 3 -69 33 -16 40 -40 162 -30 157 4 -3 11 0 15 6 9 14 58
4 89 -18z m-409 -49 c5 -46 -7 -86 -21 -72 -11 11 -18 85 -11 114 10 38 25 18
32 -42z m84 56 c0 -6 21 -33 46 -60 26 -27 50 -64 54 -82 8 -33 8 -33 9 10 1
46 21 60 21 15 0 -16 3 -52 6 -80 7 -57 -3 -68 -36 -38 -10 9 -27 18 -40 20
-43 8 -85 40 -91 71 -12 54 -10 142 4 147 20 9 27 8 27 -3z m595 -16 c24 -25
47 -74 41 -90 -10 -27 -55 -16 -76 19 -39 63 -12 118 35 71z m-1285 -56 c25
15 75 9 142 -19 26 -11 76 -22 110 -26 84 -8 106 -18 119 -50 12 -32 -19 -128
-56 -167 -28 -31 -57 -27 -150 18 -57 28 -86 36 -128 36 -63 0 -76 11 -84 69
-7 54 6 159 18 140 7 -12 12 -12 29 -1z m-316 -18 c47 0 50 -10 31 -115 -20
-113 -33 -126 -108 -108 -42 9 -44 8 -62 -21 l-19 -31 -4 29 c-5 42 26 171 48
196 11 12 22 31 26 42 5 16 12 19 36 14 17 -3 40 -6 52 -6z m-890 -119 c-38
-96 -58 -119 -43 -50 10 41 28 83 57 127 28 43 23 14 -14 -77z m1005 19 c-1
-77 -11 -104 -37 -108 -19 -3 -22 1 -22 33 0 20 5 57 11 83 23 93 49 89 48 -8z
m-532 -5 c65 -32 72 -38 75 -68 l3 -32 20 40 c15 31 26 40 45 40 30 0 31 -20
6 -107 -19 -63 -39 -75 -86 -52 -32 16 -155 33 -208 29 -34 -3 -34 -3 -27 33
6 36 43 158 52 175 3 5 15 1 26 -8 12 -9 54 -31 94 -50z m-173 -59 c-10 -31
-19 -54 -22 -52 -2 2 4 29 14 60 10 31 19 54 22 52 2 -2 -4 -29 -14 -60z
m-347 37 c-6 -10 -84 -195 -98 -230 -7 -18 -13 -23 -20 -16 -7 7 -3 28 11 64
41 103 73 169 80 164 4 -3 10 2 14 10 3 8 8 15 11 15 4 0 4 -3 2 -7z m88 -45
c-8 -66 -23 -98 -47 -98 -22 0 -22 6 -3 61 16 45 41 89 51 89 3 0 3 -24 -1
-52z m164 -45 c-36 -88 -64 -133 -83 -133 -11 0 -24 8 -72 49 -7 5 -14 8 -17
5 -17 -17 2 52 23 82 20 30 36 40 80 51 30 8 64 20 75 27 30 21 29 5 -6 -81z
m-614 20 c-49 -120 -80 -183 -92 -187 -7 -3 -13 1 -13 8 0 35 93 216 111 216
5 0 2 -17 -6 -37z m111 20 c33 -16 35 -20 30 -53 l-6 -35 26 45 c54 95 76 71
30 -34 -42 -97 -58 -116 -87 -98 -12 8 -40 12 -62 11 -40 -3 -42 -2 -39 23 3
27 58 158 67 158 2 0 21 -8 41 -17z m-197 -100 c-70 -151 -66 -145 -109 -175
l-38 -27 8 27 c38 127 104 260 133 272 57 23 58 15 6 -97z m4321 -33 c6 -11 8
-20 6 -20 -3 0 -10 9 -16 20 -6 11 -8 20 -6 20 3 0 10 -9 16 -20z m-1467 -127
c3 -10 31 -88 62 -173 155 -418 207 -667 224 -1070 l6 -155 47 91 c26 49 63
135 83 190 34 91 74 278 76 349 1 59 16 -7 45 -200 26 -176 28 -213 29 -491
l0 -302 35 29 c19 16 51 42 70 59 19 16 38 30 41 30 11 0 -8 -97 -36 -182 -16
-48 -26 -90 -23 -94 4 -3 45 23 92 59 76 57 188 174 234 245 l17 26 6 -54 c9
-74 2 -382 -10 -500 -20 -181 -50 -308 -130 -551 -49 -145 -52 -149 -256 -354
-164 -165 -250 -233 -477 -380 -93 -59 -168 -109 -168 -111 0 -16 305 180 430
275 47 36 80 59 74 51 -6 -8 -33 -44 -60 -80 -27 -36 -86 -131 -132 -211 l-83
-147 -19 -123 c-16 -104 -17 -136 -7 -206 6 -45 8 -86 4 -90 -4 -3 -33 -2 -64
4 -43 8 -114 6 -288 -7 -126 -10 -329 -24 -450 -30 -175 -10 -254 -19 -388
-46 -92 -18 -176 -38 -188 -44 -11 -7 -22 -10 -23 -8 -21 30 -80 188 -101 268
-15 58 -31 113 -36 123 -13 23 -8 22 90 -13 146 -52 230 -70 354 -72 68 -2
120 1 126 7 7 7 -37 10 -132 10 l-142 1 -230 77 c-257 87 -374 140 -550 246
-137 84 -244 170 -341 274 -82 88 -120 146 -201 307 -34 69 -63 121 -63 116 0
-17 118 -251 159 -313 22 -35 38 -63 35 -63 -13 0 -54 27 -114 75 -36 29 -84
65 -107 80 -47 31 -90 96 -153 237 -85 187 -180 486 -180 561 l1 42 84 -90
c46 -49 85 -87 85 -84 0 10 -29 80 -59 139 -16 30 -31 78 -35 105 -4 28 -16
75 -27 105 -10 30 -14 47 -7 38 29 -38 54 -87 75 -148 21 -60 22 -57 7 10 -4
20 4 14 44 -30 l50 -54 -24 159 c-14 88 -29 189 -34 225 -12 80 -12 347 0 308
4 -15 13 -94 20 -175 6 -82 14 -168 17 -193 l5 -45 20 45 c11 25 42 104 69
175 47 128 63 155 34 59 -21 -69 -20 -70 28 -29 23 20 76 62 117 93 41 31 86
66 100 78 14 13 56 35 93 49 147 55 218 99 302 187 44 45 93 99 109 118 54 67
-3 -19 -72 -110 -36 -47 -69 -90 -73 -96 -5 -6 87 11 204 37 194 44 221 52
318 103 97 51 115 65 201 158 183 200 296 397 389 678 26 80 48 134 48 120 1
-48 -27 -225 -48 -309 -56 -217 -228 -442 -449 -589 -45 -30 -81 -57 -79 -58
8 -9 205 32 307 63 100 31 129 45 223 110 92 64 117 76 165 83 31 4 58 7 59 6
7 -6 -194 -127 -272 -164 -66 -31 -81 -41 -55 -38 129 20 178 31 278 64 93 30
124 45 180 90 82 66 96 72 180 72 37 0 99 3 137 7 l70 7 -50 13 c-27 7 -81 16
-118 19 -37 4 -70 10 -72 14 -2 4 15 38 39 76 117 190 206 515 206 759 0 87
10 121 23 78z m-297 -374 c-20 -162 -48 -281 -92 -393 -50 -128 -69 -148 -146
-162 -35 -7 -64 -11 -66 -9 -1 1 18 27 43 57 97 118 194 380 235 633 34 209
35 211 38 100 2 -55 -4 -157 -12 -226z m-1492 -244 c-31 -196 -55 -293 -101
-407 -26 -62 -41 -88 -53 -88 -15 0 -10 24 35 164 30 90 72 239 96 330 23 92
43 165 45 163 2 -1 -8 -74 -22 -162z m-475 -120 c-32 -281 -64 -435 -129 -630
-33 -99 -57 -167 -54 -151 26 139 186 924 189 935 13 34 11 -5 -6 -154z m-982
133 c-3 -8 -6 -5 -6 6 -1 11 2 17 5 13 3 -3 4 -12 1 -19z m-10 -80 c-3 -7 -5
-2 -5 12 0 14 2 19 5 13 2 -7 2 -19 0 -25z m-10 -60 c-3 -8 -6 -5 -6 6 -1 11
2 17 5 13 3 -3 4 -12 1 -19z m1718 -100 c-23 -87 -80 -210 -123 -266 -32 -42
-42 -34 -11 10 22 31 129 262 129 279 0 11 19 59 23 59 2 0 -6 -37 -18 -82z
m-1728 5 c-3 -10 -5 -4 -5 12 0 17 2 24 5 18 2 -7 2 -21 0 -30z m-10 -100 c-3
-10 -5 -4 -5 12 0 17 2 24 5 18 2 -7 2 -21 0 -30z m-254 -90 c21 -24 31 -69
18 -77 -6 -4 -11 -15 -10 -24 0 -13 3 -12 11 5 14 30 124 99 168 107 59 10 64
0 55 -100 -9 -108 -9 -87 -2 -214 3 -58 2 -85 -1 -61 l-7 44 -63 -99 c-35 -54
-89 -136 -120 -181 -59 -86 -117 -183 -108 -183 3 0 24 33 48 72 l43 73 3 -45
c2 -25 1 -96 -3 -157 l-7 -113 -54 46 c-30 26 -51 50 -48 55 3 5 1 8 -4 7 -6
-2 -52 35 -103 82 -112 101 -99 80 21 -35 207 -199 192 -189 311 -209 101 -17
108 -20 155 -63 83 -76 188 -168 209 -182 11 -7 2 3 -20 23 -22 20 -35 36 -29
36 6 0 37 -24 68 -52 47 -44 62 -65 82 -122 l24 -68 -28 -57 c-68 -135 -91
-162 -207 -230 -62 -37 -149 -79 -203 -97 -52 -17 -98 -38 -103 -45 -5 -8 -9
-32 -9 -55 0 -73 -86 -229 -217 -394 -141 -176 -154 -191 -116 -120 65 118
283 549 312 618 l32 73 -50 174 -49 174 -138 156 -137 155 -166 94 -166 94
-110 -23 c-99 -22 -143 -40 -445 -185 -306 -147 -425 -208 -487 -248 -13 -8
-23 -12 -23 -9 0 21 174 117 455 251 182 87 331 159 332 160 1 0 -9 38 -22 82
-34 116 -41 206 -22 278 13 49 26 70 72 116 31 31 72 62 93 69 21 7 68 43 107
81 77 74 217 165 420 271 105 55 139 69 176 69 31 0 51 -6 62 -17z m1542 -207
c-15 -25 -29 -46 -31 -46 -6 0 25 71 38 87 23 28 19 3 -7 -41z m-1283 -388 c2
-31 -1 -54 -6 -51 -5 4 -7 -75 -4 -183 2 -104 1 -175 -3 -159 -9 42 -10 293
-2 406 8 94 10 92 15 -13z m4981 -178 c4 -52 3 -120 -2 -150 -7 -48 -9 -41
-10 65 -1 66 -3 145 -6 175 -3 37 -2 47 3 30 5 -14 12 -68 15 -120z m-4956
-107 c-2 -21 -4 -4 -4 37 0 41 2 58 4 38 2 -21 2 -55 0 -75z m5230 -135 c-3
-8 -6 -5 -6 6 -1 11 2 17 5 13 3 -3 4 -12 1 -19z m-5173 -43 c5 -22 4 -26 -4
-15 -5 8 -10 24 -10 34 0 26 6 18 14 -19z m5163 3 c-3 -8 -6 -5 -6 6 -1 11 2
17 5 13 3 -3 4 -12 1 -19z m-10 -50 c-3 -8 -6 -5 -6 6 -1 11 2 17 5 13 3 -3 4
-12 1 -19z m-10 -40 c-3 -8 -6 -5 -6 6 -1 11 2 17 5 13 3 -3 4 -12 1 -19z
m-397 -69 c-13 -68 -74 -169 -145 -239 -30 -30 -55 -49 -55 -43 0 6 7 16 15
23 24 20 116 169 152 248 19 40 36 72 39 70 2 -3 0 -29 -6 -59z m291 -216
c-12 -20 -14 -14 -5 12 4 9 9 14 11 11 3 -2 0 -13 -6 -23z m-30 -70 c-12 -20
-14 -14 -5 12 4 9 9 14 11 11 3 -2 0 -13 -6 -23z m-7301 -67 c-14 -13 -81 -74
-149 -136 -67 -61 -149 -142 -181 -178 -103 -120 -134 -135 -38 -19 46 56 372
357 386 357 4 0 -5 -11 -18 -24z m7230 -76 c-11 -22 -23 -40 -25 -40 -3 0 4
18 15 40 11 22 23 40 25 40 3 0 -4 -18 -15 -40z m-4675 -138 c-2 -3 -8 4 -11
14 -4 10 -13 34 -20 53 -8 18 -14 39 -14 45 1 6 12 -16 25 -48 14 -33 23 -61
20 -64z m-65 73 c0 -5 -5 -3 -10 5 -5 8 -10 20 -10 25 0 6 5 3 10 -5 5 -8 10
-19 10 -25z m4690 -25 c-6 -11 -13 -20 -16 -20 -2 0 0 9 6 20 6 11 13 20 16
20 2 0 0 -9 -6 -20z m-4660 -45 c0 -5 -5 -3 -10 5 -5 8 -10 20 -10 25 0 6 5 3
10 -5 5 -8 10 -19 10 -25z m-149 -12 c26 -82 191 -383 271 -495 11 -16 17 -28
13 -28 -11 0 -174 258 -219 347 -57 114 -97 213 -86 213 5 0 14 -17 21 -37z
m214 -33 c9 -16 13 -30 11 -30 -3 0 -12 14 -21 30 -9 17 -13 30 -11 30 3 0 12
-13 21 -30z m45 -80 c6 -11 8 -20 6 -20 -3 0 -10 9 -16 20 -6 11 -8 20 -6 20
3 0 10 -9 16 -20z m4450 16 c0 -2 -8 -10 -17 -17 -16 -13 -17 -12 -4 4 13 16
21 21 21 13z m-30 -40 c0 -2 -8 -10 -17 -17 -16 -13 -17 -12 -4 4 13 16 21 21
21 13z m-40 -50 c0 -2 -8 -10 -17 -17 -16 -13 -17 -12 -4 4 13 16 21 21 21 13z
m-40 -49 c0 -1 -28 -29 -62 -62 l-63 -60 60 63 c55 58 65 67 65 59z m-3954
-239 l29 -33 -32 29 c-31 28 -38 36 -30 36 2 0 16 -15 33 -32z m59 -48 c10
-11 16 -20 13 -20 -3 0 -13 9 -23 20 -10 11 -16 20 -13 20 3 0 13 -9 23 -20z
m-205 -96 c0 -7 -88 55 -96 67 -3 6 17 -6 45 -26 28 -20 51 -39 51 -41z m3112
-101 c-6 -2 -9 -10 -6 -15 4 -7 2 -8 -5 -4 -13 9 -5 26 12 25 9 0 8 -2 -1 -6z
m-205 -85 c-3 -8 -6 -5 -6 6 -1 11 2 17 5 13 3 -3 4 -12 1 -19z m-4197 -11 c0
-1 -57 -58 -127 -127 -70 -69 -124 -120 -120 -115 9 13 241 245 245 245 1 0 2
-1 2 -3z m4187 -129 c-2 -18 -4 -6 -4 27 0 33 2 48 4 33 2 -15 2 -42 0 -60z
m-4684 -360 c-171 -183 -243 -263 -243 -269 0 -30 781 -54 1035 -33 39 4 68 4
65 1 -3 -3 -87 -13 -185 -22 -145 -12 -218 -13 -370 -6 -105 6 -287 13 -405
17 -166 5 -210 9 -195 18 11 6 43 36 70 66 81 89 248 260 254 260 3 0 -9 -15
-26 -32z m4697 -259 c0 -21 23 -49 100 -122 87 -83 107 -97 152 -107 61 -15
237 -100 258 -125 11 -13 -1 -10 -40 10 -30 16 -102 41 -160 57 l-105 28 -106
106 c-117 116 -108 99 -124 254 -4 40 -3 38 10 -15 8 -33 14 -72 15 -86z
m-3215 -48 c18 -7 -501 -4 -535 3 -8 2 104 4 250 4 146 0 274 -3 285 -7z
m1512 -203 c-7 -4 -21 -8 -32 -8 -11 0 -41 -7 -67 -17 -39 -14 -49 -14 -63 -3
-20 16 -14 21 58 50 37 14 65 34 80 54 l22 31 7 -50 c5 -34 3 -52 -5 -57z
m-5937 -138 c119 -237 181 -333 283 -445 396 -429 401 -434 635 -510 79 -26
142 -48 140 -50 -10 -10 -358 112 -399 139 -25 17 -81 70 -125 117 -43 48
-133 144 -199 215 -66 71 -129 140 -140 154 -11 14 -42 43 -68 65 -40 32 -60
61 -112 164 -79 159 -109 251 -93 287 l12 25 11 -38 c7 -21 31 -76 55 -123z
m5225 -19 c22 -10 74 -38 115 -63 41 -24 84 -47 95 -51 19 -7 19 -7 1 7 -17
14 -13 15 45 18 35 2 111 0 168 -4 88 -5 110 -3 147 12 35 15 45 16 54 6 8
-10 1 -26 -31 -66 -47 -59 -99 -109 -114 -110 -14 0 -274 -78 -286 -86 -5 -3
-22 9 -37 27 -15 17 -44 49 -64 69 -21 21 -38 43 -38 49 0 9 -21 35 -159 199
l-44 53 54 -21 c30 -12 72 -29 94 -39z m3241 -309 c-5 -4 -66 26 -66 33 0 3
16 -3 35 -12 19 -9 33 -18 31 -21z m334 -130 c74 -22 203 -59 285 -82 118 -32
179 -56 286 -110 126 -65 142 -76 232 -167 53 -54 130 -148 171 -208 l76 -110
-53 -24 c-35 -16 -82 -26 -147 -32 -52 -4 -127 -12 -166 -18 -39 -6 -113 -10
-163 -9 l-92 1 -114 153 c-63 84 -138 189 -165 233 -52 84 -280 368 -309 386
-26 15 -131 97 -131 101 0 2 35 -13 78 -35 42 -21 138 -57 212 -79z m-2083 92
c-3 -3 -12 -4 -19 -1 -8 3 -5 6 6 6 11 1 17 -2 13 -5z m1171 -51 c-32 -2 -86
-2 -120 0 -35 2 -9 3 57 3 66 0 94 -1 63 -3z m2077 -811 c26 -59 124 -262 216
-451 163 -332 173 -357 285 -685 89 -260 152 -423 266 -684 135 -309 214 -510
205 -519 -2 -2 -31 65 -65 149 -33 84 -114 263 -180 398 -106 220 -131 282
-236 594 -122 359 -211 582 -359 886 -46 96 -108 229 -137 295 -28 66 -57 127
-63 135 -10 13 -10 13 4 2 9 -7 38 -61 64 -120z m-8198 -18 c-3 -3 -12 -4 -19
-1 -8 3 -5 6 6 6 11 1 17 -2 13 -5z m56 -11 c-7 -2 -19 -2 -25 0 -7 3 -2 5 12
5 14 0 19 -2 13 -5z m267 -42 c124 -22 288 -51 365 -65 77 -15 286 -49 465
-76 354 -54 595 -112 686 -165 27 -16 44 -30 39 -32 -6 -1 -118 29 -250 67
-218 63 -277 76 -635 135 -353 57 -949 172 -910 174 8 1 116 -17 240 -38z
m2110 -657 c0 -2 -9 0 -20 6 -11 6 -20 13 -20 16 0 2 9 0 20 -6 11 -6 20 -13
20 -16z m5314 -398 c3 -13 8 -32 12 -43 3 -10 -4 -2 -15 17 -23 39 -25 50 -12
50 5 0 12 -11 15 -24z m-4827 -382 c29 -126 69 -314 88 -419 21 -113 64 -285
105 -425 38 -129 92 -318 120 -419 28 -101 76 -269 106 -374 30 -104 53 -194
52 -199 -2 -6 -22 55 -45 134 -23 78 -96 323 -163 543 -108 357 -132 453 -229
898 -60 276 -103 496 -97 494 6 -2 35 -107 63 -233z m4807 -1498 c-15 -47 -30
-84 -32 -81 -2 2 9 42 24 89 15 47 30 84 32 81 2 -2 -9 -42 -24 -89z m-27
-228 c-2 -24 -4 -7 -4 37 0 44 2 63 4 43 2 -21 2 -57 0 -80z m234 -593 c78
-203 184 -469 236 -590 123 -284 341 -814 383 -930 90 -248 296 -722 465
-1070 129 -266 216 -459 260 -580 18 -49 54 -141 80 -203 25 -63 64 -162 85
-220 64 -179 129 -312 204 -417 l71 -100 72 -345 c69 -332 83 -414 64 -380
-11 20 -155 551 -177 655 -9 44 -20 85 -25 91 -21 26 -199 430 -289 654 -130
325 -254 605 -391 885 -61 127 -192 417 -289 645 -98 228 -237 550 -310 715
-73 165 -188 446 -255 625 -67 179 -184 477 -259 662 -117 289 -136 344 -136
390 l1 53 35 -85 c19 -47 98 -251 175 -455z m-4534 443 c-3 -8 -6 -5 -6 6 -1
11 2 17 5 13 3 -3 4 -12 1 -19z m6393 -695 c0 -7 5 -13 11 -13 5 0 8 -4 5 -9
-4 -5 -1 -11 4 -13 14 -4 535 -1366 527 -1375 -5 -4 -87 187 -127 297 -44 118
-261 677 -327 840 -59 145 -122 319 -122 335 1 14 28 -47 29 -62z m-6206 -112
c8 -40 16 -74 18 -76 2 -2 25 2 52 10 29 9 119 17 234 21 216 7 1509 -12 1972
-29 173 -7 407 -9 520 -6 113 4 387 7 609 8 l403 1 -6 -32 c-5 -33 -39 -339
-50 -455 -3 -36 -2 -65 4 -68 6 -3 10 3 10 14 0 19 6 21 59 21 44 0 66 -6 91
-22 30 -20 36 -34 57 -113 12 -49 21 -94 20 -99 -2 -5 -18 35 -36 88 -18 53
-37 96 -41 96 -4 0 -33 -9 -65 -20 -32 -11 -146 -31 -254 -44 -507 -64 -1174
-90 -1896 -75 -231 5 -699 11 -1040 15 -580 5 -626 7 -715 26 -52 12 -101 21
-108 21 -8 0 -9 4 -3 10 6 6 41 13 77 16 65 6 68 7 76 36 15 54 22 429 10 533
-25 214 -24 262 2 123z m3969 -39 c-3 -12 -9 -22 -14 -22 -5 0 -3 11 3 25 13
30 20 28 11 -3z m-4188 -874 c-24 -92 -67 -239 -95 -328 -27 -88 -50 -163 -50
-166 0 -3 -4 -2 -10 1 -5 3 -33 -29 -61 -72 -28 -43 -59 -87 -69 -98 -12 -13
-48 -144 -109 -395 -80 -329 -106 -458 -206 -1045 -63 -368 -115 -692 -116
-720 -2 -47 -3 -48 -6 -10 -2 22 35 331 82 685 l86 646 113 446 114 447 68 80
c46 54 72 77 79 71 8 -7 29 48 70 183 61 202 145 450 151 444 2 -1 -17 -78
-41 -169z m6995 -433 c0 -5 -5 -3 -10 5 -5 8 -10 20 -10 25 0 6 5 3 10 -5 5
-8 10 -19 10 -25z m-2181 -1400 c0 -5 -6 1 -14 15 -8 14 -14 30 -14 35 0 6 6
-1 14 -15 8 -14 14 -29 14 -35z m30 -70 c0 -5 -6 1 -14 15 -8 14 -14 30 -14
35 0 6 6 -1 14 -15 8 -14 14 -29 14 -35z m106 -250 c20 -53 35 -99 32 -101 -3
-3 -128 304 -134 331 -7 29 70 -145 102 -230z m2732 -67 c-3 -8 -6 -5 -6 6 -1
11 2 17 5 13 3 -3 4 -12 1 -19z m10 -40 c-3 -8 -6 -5 -6 6 -1 11 2 17 5 13 3
-3 4 -12 1 -19z m-2683 -58 c5 -17 4 -20 -2 -10 -5 8 -13 26 -16 40 -5 17 -4
20 2 10 5 -8 13 -26 16 -40z m2693 8 c-3 -7 -5 -2 -5 12 0 14 2 19 5 13 2 -7
2 -19 0 -25z m21 -83 c0 -16 -2 -15 -8 5 -4 14 -8 34 -8 45 0 16 2 15 8 -5 4
-14 8 -34 8 -45z m-151 -547 c28 -101 57 -210 63 -243 6 -33 21 -99 32 -148
l21 -87 66 -19 c36 -11 134 -38 217 -61 257 -69 549 -181 699 -269 103 -59
204 -157 244 -235 37 -72 35 -98 -5 -51 l-24 30 20 -35 c33 -57 62 -121 57
-126 -3 -3 -37 11 -77 31 -40 20 -74 34 -77 32 -2 -3 42 -28 99 -57 57 -28
194 -101 306 -163 163 -89 233 -135 356 -232 85 -67 194 -158 242 -204 49 -46
102 -92 117 -101 44 -27 195 -204 169 -198 -15 4 -22 2 -22 -8 0 -20 -53 -44
-100 -44 -50 0 -315 129 -400 194 -128 99 -383 249 -543 319 l-162 71 -160 9
c-119 6 -188 15 -271 36 l-111 28 -44 -33 c-24 -19 -50 -32 -56 -29 -20 7 -16
-10 18 -78 62 -123 155 -273 215 -348 65 -81 200 -317 210 -367 12 -58 -29
-135 -77 -146 -45 -11 -93 26 -216 164 -203 227 -434 438 -593 541 -137 88
-198 136 -372 288 -133 117 -148 134 -210 236 -93 154 -137 275 -148 412 -5
60 -6 151 -3 204 5 87 3 104 -27 207 -18 62 -31 114 -29 115 2 2 62 45 132 96
85 62 137 107 154 135 14 22 52 73 83 111 52 64 72 93 124 178 9 15 20 27 24
27 4 0 31 -82 59 -182z m-8300 -45 c-2 -21 -4 -6 -4 32 0 39 2 55 4 38 2 -18
2 -50 0 -70z m-10 -145 c-2 -18 -4 -6 -4 27 0 33 2 48 4 33 2 -15 2 -42 0 -60z
m-10 -150 c-2 -13 -4 -3 -4 22 0 25 2 35 4 23 2 -13 2 -33 0 -45z m-10 -150
c-2 -13 -4 -5 -4 17 -1 22 1 32 4 23 2 -10 2 -28 0 -40z m-10 -145 c-3 -10 -5
-4 -5 12 0 17 2 24 5 18 2 -7 2 -21 0 -30z m-96 -444 c-33 -118 -94 -338 -135
-489 -74 -266 -103 -358 -91 -280 3 19 10 68 15 108 17 128 174 683 180 632 1
-8 8 8 16 35 39 132 67 215 71 212 2 -3 -23 -101 -56 -218z m3836 -231 c-3 -7
-5 -2 -5 12 0 14 2 19 5 13 2 -7 2 -19 0 -25z m10 -75 c-3 -10 -5 -4 -5 12 0
17 2 24 5 18 2 -7 2 -21 0 -30z m950 -45 c-3 -8 -6 -5 -6 6 -1 11 2 17 5 13 3
-3 4 -12 1 -19z m-909 -263 c0 -59 -3 -47 -19 80 -23 190 -22 230 1 95 10 -58
18 -136 18 -175z m927 -79 c-9 -133 -33 -410 -55 -616 -22 -206 -41 -393 -43
-415 l-4 -40 -1 42 c-1 23 21 304 49 625 32 376 48 610 45 658 l-5 75 14 -44
c13 -39 13 -75 0 -285z m5076 85 c96 -42 211 -102 279 -145 l115 -73 79 -129
c43 -71 90 -151 104 -179 37 -75 137 -373 155 -464 7 -33 7 -34 -12 -17 -12
11 -21 14 -26 7 -11 -18 -75 -12 -115 10 -28 16 -65 61 -136 163 -54 77 -112
166 -129 196 -52 96 -284 378 -450 548 l-160 164 66 -5 c53 -4 97 -18 230 -76z
m-204 -75 c49 -70 65 -104 97 -210 l39 -127 -23 -42 c-13 -23 -50 -86 -83
-140 -59 -97 -85 -129 -72 -88 5 17 2 21 -14 21 -29 0 -61 55 -61 103 0 20 16
92 36 159 38 129 40 158 18 356 -4 28 -4 52 -1 52 3 0 32 -38 64 -84z m319
-314 l112 -143 1 -209 c1 -135 -3 -210 -9 -210 -5 0 -10 7 -10 15 0 13 -4 14
-20 5 -31 -17 -68 -1 -107 46 -30 38 -42 67 -74 192 -21 81 -38 159 -39 173 0
14 -23 102 -51 195 -38 127 -60 182 -87 222 -69 99 -65 97 54 -23 65 -66 169
-184 230 -263z m-5299 -864 c-2 -18 -4 -4 -4 32 0 36 2 50 4 33 2 -18 2 -48 0
-65z m-2040 50 c-3 -8 -6 -5 -6 6 -1 11 2 17 5 13 3 -3 4 -12 1 -19z m-3242
-58 c-9 -28 -19 -49 -22 -46 -3 2 3 28 12 56 9 28 19 49 22 46 3 -2 -3 -28
-12 -56z m3222 -12 c-3 -8 -6 -5 -6 6 -1 11 2 17 5 13 3 -3 4 -12 1 -19z m-41
-159 c-50 -191 -388 -1806 -388 -1854 0 -22 -19 -112 -43 -200 -63 -235 -134
-549 -225 -1000 -223 -1101 -251 -1215 -438 -1775 -108 -323 -151 -464 -156
-515 -3 -38 -9 -86 -12 -105 -3 -24 -2 -30 4 -20 5 8 13 45 17 82 14 137 7
137 130 -3 59 -68 139 -155 176 -194 68 -71 271 -318 417 -507 112 -145 320
-478 440 -703 293 -552 407 -922 486 -1575 20 -166 40 -427 71 -925 58 -945
110 -1401 230 -2030 49 -256 115 -661 115 -704 0 -28 -11 -49 -48 -96 -27 -33
-64 -89 -82 -124 -40 -74 -108 -153 -163 -188 -69 -43 -258 -111 -373 -133
l-112 -21 -78 21 c-44 11 -134 35 -201 53 l-123 32 -34 50 c-30 44 -40 76 -81
270 -173 805 -577 2134 -922 3035 -31 80 -151 375 -268 655 -317 760 -458
1105 -555 1355 -143 369 -177 447 -227 533 -91 155 -142 287 -174 452 -115
593 -140 849 -164 1680 -22 748 -35 992 -90 1750 -34 458 -71 1143 -63 1151 4
3 25 -1 48 -10 27 -11 71 -16 131 -16 68 0 112 -6 173 -25 44 -13 159 -38 255
-55 99 -17 178 -35 183 -42 4 -7 8 -26 8 -42 0 -27 2 -28 38 -23 20 3 89 11
152 18 110 11 123 10 314 -20 141 -22 202 -28 206 -20 5 7 72 -7 211 -46 l204
-57 283 6 c156 3 291 10 300 15 14 7 31 82 80 358 90 495 359 1669 379 1649 2
-2 -12 -64 -31 -137z m2091 49 c-2 -13 -4 -3 -4 22 0 25 2 35 4 23 2 -13 2
-33 0 -45z m-10 -135 c-3 -10 -5 -4 -5 12 0 17 2 24 5 18 2 -7 2 -21 0 -30z
m1349 -1080 c-3 -10 -17 -70 -31 -133 -47 -204 -352 -1452 -469 -1915 -218
-861 -262 -1062 -276 -1267 -14 -210 -12 -562 5 -718 8 -74 15 -217 15 -318 0
-145 5 -215 24 -335 65 -403 151 -1100 176 -1412 6 -77 20 -207 30 -290 29
-222 42 -553 30 -780 -26 -489 -111 -1145 -200 -1540 -11 -49 -36 -171 -56
-270 -19 -99 -89 -450 -154 -780 -286 -1439 -413 -2195 -456 -2702 -3 -46 -8
-83 -9 -83 -1 0 -45 18 -96 41 -83 36 -105 52 -185 131 l-91 90 -172 59 -172
59 -152 -36 c-138 -32 -154 -38 -180 -67 l-27 -32 5 40 c12 94 35 349 40 455
3 63 8 129 10 145 10 62 34 615 46 1017 12 416 5 999 -21 1803 -13 371 -12
1245 0 1620 10 302 32 705 50 910 5 61 12 142 15 180 3 39 18 216 35 395 16
179 32 431 35 560 6 211 4 258 -19 465 -20 181 -34 261 -65 375 -55 205 -88
457 -96 745 -4 127 -17 334 -30 460 -13 127 -31 349 -40 495 -9 146 -34 510
-56 810 -23 300 -51 689 -64 865 -13 176 -26 337 -29 358 -2 20 0 37 4 37 5 0
12 21 15 48 9 65 15 83 25 77 5 -3 10 -2 12 3 6 15 475 123 763 176 l290 53
40 45 40 45 220 37 c121 21 338 48 484 61 145 13 266 27 269 30 3 3 111 5 239
5 219 0 234 -1 229 -17z m-2437 -10918 l0 -20 -9 20 c-5 11 -9 29 -9 40 l0 20
9 -20 c5 -11 9 -29 9 -40z m-1582 -452 c-2 -16 -4 -5 -4 22 0 28 2 40 4 28 2
-13 2 -35 0 -50z m48 -600 c4 -44 11 -73 18 -73 6 0 20 -11 32 -24 13 -15 51
-32 111 -50 102 -29 171 -33 200 -11 56 42 174 -19 174 -90 0 -9 -11 -27 -25
-40 -28 -29 -89 -34 -121 -10 -24 18 -74 19 -97 2 -16 -11 -16 -18 -6 -66 6
-31 8 -79 4 -114 l-6 -59 28 6 c15 4 37 16 49 27 11 11 36 24 55 29 29 9 37 7
58 -15 28 -27 32 -80 11 -121 -18 -32 -64 -50 -94 -36 -18 8 -28 7 -42 -2 -11
-7 -31 -17 -45 -22 l-26 -9 14 -62 c11 -48 19 -63 32 -63 9 0 27 -9 39 -20 27
-25 30 -94 6 -129 -16 -23 -16 -49 1 -142 l7 -35 -76 -24 c-70 -23 -97 -40
-61 -40 8 0 15 -6 16 -12 0 -7 4 -3 9 10 5 12 17 22 25 22 13 0 15 -6 10 -32
-17 -76 -50 -107 -96 -93 -21 7 -22 5 -16 -55 3 -37 12 -69 22 -80 13 -15 16
-29 11 -67 -4 -26 -9 -76 -12 -110 l-6 -63 -51 -15 c-28 -8 -52 -15 -54 -15
-2 0 -3 16 -3 35 0 19 -2 35 -5 35 -3 0 -28 -11 -55 -25 -48 -24 -62 -46 -40
-60 6 -4 8 -15 5 -26 -8 -23 6 -24 47 -3 29 15 32 15 51 -5 18 -18 19 -24 8
-60 -24 -83 -88 -125 -131 -86 -12 11 -55 16 -173 21 -157 6 -157 6 -196 -19
-22 -15 -42 -35 -46 -46 -6 -19 -68 -41 -80 -29 -5 4 56 96 173 262 23 33 42
54 42 48 0 -6 -4 -13 -9 -16 -5 -3 -14 -20 -20 -37 -10 -28 -9 -30 11 -24 12
4 24 2 28 -5 6 -9 18 -3 44 23 l36 36 -17 35 c-9 21 -25 36 -37 38 -27 4 -27
6 40 218 125 394 122 386 154 545 7 33 18 78 26 100 25 75 42 155 37 175 -3
11 -1 26 4 33 14 17 36 163 28 187 -4 11 -20 23 -38 28 -30 8 -33 6 -50 -32
-34 -75 -183 -529 -207 -630 -19 -79 -30 -106 -56 -133 -32 -33 -44 -57 -120
-222 -33 -72 -39 -81 -45 -60 -4 16 4 43 23 81 15 32 39 83 53 113 22 51 23
56 6 50 -15 -4 -26 6 -51 46 -30 49 -31 53 -17 87 8 20 18 37 23 39 5 1 19
-20 32 -47 56 -119 98 -43 201 355 38 149 74 283 80 299 7 16 9 31 6 34 -2 3
-29 -46 -59 -109 -135 -285 -225 -469 -231 -469 -3 0 -2 8 3 18 5 9 76 167
157 351 145 329 199 434 208 409 2 -7 7 6 11 30 5 26 13 42 22 42 18 0 18 24
-1 255 -8 99 -14 221 -13 270 0 68 5 32 19 -145 10 -129 21 -268 24 -307z
m423 231 c29 -8 62 -24 72 -34 30 -30 26 -76 -9 -111 -86 -86 -240 26 -188
137 19 38 15 38 125 8z m956 -756 c-56 -340 -104 -690 -104 -760 0 -20 0 -20
32 0 23 15 37 36 50 71 23 69 68 151 83 151 7 0 18 -7 25 -15 17 -21 62 -19
150 6 41 12 83 22 94 24 10 1 25 10 32 19 11 16 24 18 85 14 51 -3 74 -8 77
-18 3 -8 15 -22 26 -32 12 -9 39 -32 60 -50 39 -33 73 -39 151 -26 15 2 26 -8
43 -42 40 -80 23 -175 -31 -175 -15 1 -26 -4 -24 -10 3 -5 50 -138 106 -295
l102 -285 -16 -63 c-13 -46 -25 -68 -45 -82 l-28 -20 -54 20 c-29 11 -58 23
-64 28 -6 4 -41 160 -78 347 -69 354 -84 410 -118 447 -15 18 -13 11 7 -27 31
-59 89 -326 72 -337 -12 -7 -4 -171 19 -371 9 -76 14 -140 12 -143 -2 -2 -36
5 -74 16 -38 11 -89 20 -112 20 -24 0 -58 6 -75 14 -18 8 -74 17 -126 20 l-94
5 27 -28 c29 -30 34 -52 22 -89 -11 -33 16 -38 69 -12 56 27 86 21 132 -25 37
-37 38 -54 6 -103 -12 -20 -21 -23 -51 -19 -51 6 -232 36 -262 42 -25 5 -25 5
-5 -12 12 -10 24 -26 27 -35 5 -11 28 -21 69 -29 79 -16 154 -64 154 -99 0
-22 -5 -25 -41 -28 -33 -2 -58 6 -120 39 -69 36 -195 87 -354 142 -53 18 -230
37 -352 37 -52 0 -90 4 -94 11 -22 36 110 81 169 58 21 -9 42 -9 87 1 l60 13
-63 28 c-34 15 -73 30 -87 33 -48 11 -54 20 -36 55 20 38 52 60 98 68 32 5 37
2 56 -31 12 -20 25 -36 30 -36 5 0 15 15 23 33 9 20 28 39 52 50 20 10 37 22
37 26 0 13 -114 39 -151 34 -24 -3 -39 0 -48 11 -11 13 -11 16 -1 16 8 0 10 3
7 6 -4 4 10 35 29 70 20 35 33 64 30 64 -4 0 -79 -55 -168 -122 -89 -68 -173
-128 -187 -135 -29 -14 -81 -17 -81 -5 1 4 94 77 208 162 113 85 240 188 282
229 41 40 85 80 98 88 12 9 22 19 22 24 0 14 113 129 127 129 7 0 51 37 96 83
80 79 135 117 172 117 9 0 14 4 10 9 -8 14 -60 -6 -125 -48 -30 -19 -163 -141
-295 -271 -219 -217 -282 -270 -316 -270 -7 0 -27 11 -46 26 -31 24 -33 28
-33 88 0 76 -11 64 208 216 90 63 167 121 171 129 20 40 55 221 96 505 25 169
48 312 51 317 9 15 11 10 8 -13z m186 -173 c0 -51 -85 -175 -120 -175 -17 0
-21 39 -11 95 12 63 22 84 65 139 l30 39 18 -39 c10 -21 17 -48 18 -59z m672
-2 c48 -53 58 -76 58 -135 0 -117 -40 -143 -103 -65 -44 54 -58 95 -47 142 8
33 44 85 60 85 3 0 18 -12 32 -27z m-2681 -260 c-12 -20 -14 -14 -5 12 4 9 9
14 11 11 3 -2 0 -13 -6 -23z m3096 -955 c-3 -8 -6 -5 -6 6 -1 11 2 17 5 13 3
-3 4 -12 1 -19z m-17 -135 c-28 -231 -94 -613 -140 -808 -27 -115 -61 -266
-75 -335 -14 -69 -45 -204 -68 -300 l-43 -175 -89 1 c-50 0 -177 12 -283 27
-106 14 -206 24 -222 22 -17 -2 -30 1 -30 6 0 5 -10 9 -22 8 -22 0 -22 -1 -3
-9 11 -5 14 -9 7 -9 -8 -1 -28 5 -45 13 -18 8 -95 22 -172 31 -77 9 -171 23
-210 31 -38 7 -232 34 -430 59 -589 75 -607 78 -677 127 -51 36 -58 45 -54 67
3 14 15 78 26 141 12 63 31 160 42 215 11 55 24 128 28 162 8 52 19 77 76 162
60 91 71 102 113 116 25 8 70 28 99 44 38 22 52 26 52 15 0 -11 7 -13 28 -7
15 5 128 7 252 5 l225 -2 175 -66 c232 -88 280 -111 430 -200 l126 -76 53 -97
c55 -98 78 -189 52 -205 -6 -4 -32 4 -59 18 -26 14 -99 38 -164 55 -130 33
-185 58 -305 137 -44 30 -92 54 -106 54 -65 0 -298 65 -439 123 -50 20 -66 22
-135 16 -119 -11 -264 -10 -308 2 -37 10 -41 9 -54 -12 -9 -13 -32 -40 -51
-59 -40 -39 -61 -87 -32 -71 10 6 31 30 47 55 21 31 35 44 45 40 33 -14 152
-19 275 -11 124 8 133 8 200 -16 242 -87 336 -116 394 -122 43 -5 75 -14 95
-30 66 -48 226 -125 335 -159 249 -80 602 -157 624 -136 5 4 23 54 41 111 32
101 33 102 39 63 4 -21 7 -60 7 -86 0 -46 1 -48 30 -48 18 0 33 7 38 18 31 59
136 472 172 677 74 420 93 525 98 521 2 -2 -2 -49 -8 -103z m-3116 53 c-3 -8
-22 -16 -42 -18 -31 -3 -21 -7 68 -31 109 -30 156 -54 276 -142 65 -48 74 -60
116 -146 48 -100 66 -163 48 -174 -5 -3 -45 1 -88 9 -42 9 -150 27 -239 40
-175 27 -265 53 -399 116 -63 29 -99 40 -134 40 -51 0 -177 36 -269 76 l-54
24 -59 -21 c-51 -19 -89 -51 -75 -65 2 -3 28 4 56 16 l52 20 62 -25 c115 -45
221 -75 272 -75 28 0 55 -4 61 -9 11 -12 219 -98 284 -118 104 -32 366 -82
510 -98 85 -9 179 -19 208 -22 28 -3 52 -10 52 -15 0 -4 -11 -26 -25 -47 -20
-29 -33 -78 -57 -207 -17 -93 -32 -170 -33 -172 -1 -1 -89 7 -196 18 -196 21
-256 31 -766 121 l-281 49 -149 66 c-81 36 -155 70 -164 75 -14 7 -11 29 26
201 23 106 50 218 60 248 9 30 18 60 20 66 2 7 30 32 62 56 55 43 68 48 251
92 185 44 198 46 350 47 86 1 166 5 177 9 11 5 21 9 22 9 1 1 0 -6 -3 -13z
m1124 -355 c-13 -16 -45 -39 -73 -50 -30 -12 -42 -15 -30 -6 11 8 33 25 49 37
16 13 36 28 45 35 28 22 33 14 9 -16z m959 -1257 c-3 -3 -12 -4 -19 -1 -8 3
-5 6 6 6 11 1 17 -2 13 -5z"/>
<path d="M15640 34570 c-6 -11 -8 -20 -6 -20 3 0 10 9 16 20 6 11 8 20 6 20
-3 0 -10 -9 -16 -20z"/>
<path d="M18590 32784 c-123 -16 -330 -63 -330 -75 0 -5 -8 -6 -17 -2 -10 3
-15 3 -11 -2 4 -4 -19 -24 -51 -44 -32 -20 -76 -51 -97 -69 l-39 -33 30 6 c29
7 29 6 -15 -34 -25 -22 -42 -40 -39 -41 12 -1 105 34 126 48 23 14 23 14 22
-49 -2 -109 25 -181 94 -256 66 -71 104 -86 201 -78 123 10 152 21 202 72 45
46 45 46 22 57 -13 6 -23 20 -23 31 0 16 7 20 35 21 28 0 36 5 41 25 21 75 0
190 -50 268 -17 26 -31 51 -31 56 0 11 176 -2 230 -18 44 -13 45 -14 50 -62 3
-31 -1 -74 -11 -112 -9 -35 -15 -63 -12 -63 5 0 93 186 93 198 0 6 18 26 41
46 l41 35 -98 30 c-54 17 -104 31 -112 31 -7 0 -11 4 -8 9 15 23 -127 26 -284
5z m-312 -201 c-4 -22 -64 -41 -80 -25 -7 7 -2 15 18 26 39 21 66 20 62 -1z
m22 -33 c0 -5 -7 -10 -15 -10 -8 0 -15 5 -15 10 0 6 7 10 15 10 8 0 15 -4 15
-10z"/>
<path d="M16359 32494 c-70 -13 -169 -48 -169 -60 0 -3 6 -2 13 2 27 15 -11
-15 -75 -60 -37 -26 -70 -52 -73 -56 -3 -5 10 -17 29 -27 20 -10 51 -43 75
-78 22 -33 54 -76 70 -95 l31 -35 -24 55 c-14 30 -28 77 -31 103 -9 59 3 74
85 111 59 27 200 60 200 47 0 -3 10 -11 22 -16 44 -19 30 -75 -18 -75 -69 0
-22 -243 63 -321 74 -69 110 -75 208 -35 96 38 145 69 167 104 l20 32 -21 0
c-12 0 -24 7 -28 16 -8 21 21 44 46 37 14 -3 20 3 25 27 16 84 2 115 -84 174
-25 18 -25 18 28 13 28 -2 52 -2 52 0 0 2 -20 13 -45 24 -53 24 -69 42 -28 34
40 -8 -70 49 -127 66 -45 14 -45 14 -15 20 62 14 -321 7 -396 -7z m201 -179
c0 -8 -4 -15 -10 -15 -5 0 -10 7 -10 15 0 8 5 15 10 15 6 0 10 -7 10 -15z"/>
<path d="M18839 32303 c-13 -16 -12 -17 4 -4 9 7 17 15 17 17 0 8 -8 3 -21
-13z"/>
<path d="M15952 32030 c0 -8 8 -37 18 -65 10 -27 18 -43 18 -35 0 8 -8 38 -18
65 -10 28 -18 43 -18 35z"/>
<path d="M16325 31980 c3 -5 11 -10 16 -10 6 0 7 5 4 10 -3 6 -11 10 -16 10
-6 0 -7 -4 -4 -10z"/>
<path d="M16387 31949 c7 -7 15 -10 18 -7 3 3 -2 9 -12 12 -14 6 -15 5 -6 -5z"/>
<path d="M16016 31830 c3 -14 11 -32 16 -40 6 -10 7 -7 2 10 -3 14 -11 32 -16
40 -6 10 -7 7 -2 -10z"/>
<path d="M16040 31765 c0 -5 5 -17 10 -25 5 -8 10 -10 10 -5 0 6 -5 17 -10 25
-5 8 -10 11 -10 5z"/>
<path d="M16063 31705 c14 -50 20 -71 34 -103 26 -62 24 -27 -3 44 -25 67 -42
99 -31 59z"/>
<path d="M16120 31555 c0 -5 5 -17 10 -25 5 -8 10 -10 10 -5 0 6 -5 17 -10 25
-5 8 -10 11 -10 5z"/>
<path d="M16140 31505 c0 -5 5 -17 10 -25 5 -8 10 -10 10 -5 0 6 -5 17 -10 25
-5 8 -10 11 -10 5z"/>
<path d="M15091 32884 c-111 -114 -206 -216 -212 -228 -10 -18 -8 -18 13 4 13
14 111 114 218 222 106 109 191 200 188 203 -3 3 -96 -88 -207 -201z"/>
<path d="M14606 32808 c18 -32 88 -110 108 -120 11 -6 -8 21 -43 60 -60 68
-81 88 -65 60z"/>
<path d="M15486 19114 c-4 -14 -5 -28 -3 -31 3 -2 8 8 11 23 4 14 5 28 3 31
-3 2 -8 -8 -11 -23z"/>
<path d="M15461 19029 c-7 -22 -11 -43 -8 -45 2 -2 9 14 16 37 7 22 11 43 8
45 -2 2 -9 -14 -16 -37z"/>
<path d="M16872 11640 c0 -14 2 -19 5 -12 2 6 2 18 0 25 -3 6 -5 1 -5 -13z"/>
<path d="M18050 3781 c0 -12 5 -21 10 -21 6 0 10 6 10 14 0 8 -4 18 -10 21 -5
3 -10 -3 -10 -14z"/>
<path d="M17477 3663 c-8 -21 -17 -54 -21 -73 -3 -19 5 -4 19 34 26 73 28 104
2 39z"/>
<path d="M18027 3444 c-11 -14 -17 -27 -14 -30 8 -8 35 7 42 23 10 28 -9 32
-28 7z"/>
<path d="M17601 3318 c0 -9 -4 -25 -7 -35 -5 -14 -4 -15 5 -7 7 7 11 22 8 35
-2 13 -5 16 -6 7z"/>
<path d="M17601 3188 c-9 -18 -9 -31 3 -63 l15 -40 0 63 c1 34 0 62 -2 62 -2
0 -9 -10 -16 -22z"/>
<path d="M17920 3121 c0 -5 5 -13 10 -16 6 -3 10 -2 10 4 0 5 -4 13 -10 16 -5
3 -10 2 -10 -4z"/>
<path d="M17538 3040 c-18 -45 -50 -161 -46 -165 3 -3 10 14 17 37 7 23 20 52
28 64 8 13 13 35 11 51 -3 18 -6 23 -10 13z"/>
<path d="M17575 2922 c-17 -11 -75 -89 -75 -99 0 -5 13 -22 29 -37 l29 -28 41
24 c38 21 41 26 41 65 0 31 -6 48 -22 63 -24 22 -28 23 -43 12z"/>
<path d="M17770 2866 c0 -22 3 -27 11 -19 8 8 8 16 0 30 -9 16 -10 14 -11 -11z"/>
<path d="M17412 2689 c-23 -66 -31 -186 -12 -174 6 3 10 16 10 29 0 12 11 44
25 71 13 27 21 53 18 59 -4 6 -9 26 -12 45 -6 34 -6 34 -29 -30z"/>
<path d="M17651 2654 c0 -11 3 -14 6 -6 3 7 2 16 -1 19 -3 4 -6 -2 -5 -13z"/>
<path d="M17478 2536 c-27 -30 -48 -58 -47 -63 0 -4 15 -20 33 -35 l32 -27 62
30 c34 17 62 35 62 41 0 12 -79 108 -88 108 -4 0 -28 -25 -54 -54z"/>
<path d="M17408 2270 l-23 -19 37 -1 c43 0 57 14 29 29 -15 8 -24 6 -43 -9z"/>
<path d="M17943 4204 c-19 -8 -16 -49 5 -67 19 -17 67 -22 96 -11 21 8 20 37
-1 57 -19 17 -80 29 -100 21z"/>
<path d="M19365 2790 c17 -4 41 -8 55 -8 23 -1 23 0 5 8 -11 5 -36 8 -55 8
l-35 0 30 -8z"/>
<path d="M18974 2715 c-107 -70 -112 -75 -119 -115 -4 -23 -5 -43 -3 -45 2 -2
58 50 124 116 66 65 118 119 115 118 -3 0 -56 -33 -117 -74z"/>
<path d="M19756 2744 c-4 -9 -4 -19 -1 -22 2 -3 7 3 11 12 4 9 4 19 1 22 -2 3
-7 -3 -11 -12z"/>
<path d="M19230 2642 c-14 -2 -54 -18 -90 -35 l-65 -30 62 -8 c35 -4 67 -11
73 -14 14 -9 202 -36 208 -30 3 3 3 6 1 8 -2 2 -24 19 -49 38 -67 53 -112 76
-140 71z"/>
<path d="M18657 2511 c-75 -48 -139 -90 -142 -93 -3 -3 -9 -34 -13 -70 l-8
-65 34 -13 34 -12 103 102 c98 98 104 106 120 168 9 35 14 66 13 68 -2 1 -65
-37 -141 -85z"/>
<path d="M18907 2439 c-38 -33 -45 -44 -36 -55 17 -20 43 -17 65 7 10 12 37
33 59 47 35 23 38 26 20 33 -39 15 -61 8 -108 -32z"/>
<path d="M19056 2397 l-87 -42 73 -22 c73 -23 228 -46 238 -37 3 3 -2 11 -10
17 -8 7 -37 38 -63 70 -27 31 -52 57 -56 57 -4 0 -47 -19 -95 -43z"/>
<path d="M19334 2398 c-2 -3 7 -19 20 -35 13 -16 26 -42 28 -58 3 -32 22 -41
64 -31 22 6 24 11 24 65 l0 59 -66 4 c-36 1 -68 0 -70 -4z"/>
<path d="M18795 2269 c-11 -4 -34 -8 -51 -8 -28 -1 -36 -9 -67 -61 -38 -63
-38 -68 3 -45 33 19 79 19 86 0 9 -22 42 -18 49 5 4 11 30 32 58 47 32 16 46
28 37 31 -8 2 -33 12 -55 22 -25 10 -48 14 -60 9z"/>
<path d="M18915 2165 c-38 -19 -62 -34 -52 -34 10 -1 43 -14 75 -30 41 -20 79
-30 137 -35 44 -4 91 -10 104 -13 34 -8 25 4 -56 80 -86 80 -102 82 -208 32z"/>
<path d="M19240 2171 c0 -4 14 -20 30 -36 26 -24 29 -34 24 -62 -8 -41 11 -51
55 -29 41 22 73 20 105 -5 l26 -20 0 43 c0 64 -9 85 -38 96 -32 12 -202 23
-202 13z"/>
<path d="M18841 1926 c-41 -13 -76 -27 -78 -32 -3 -9 97 -55 157 -72 19 -6 73
-13 120 -17 84 -6 85 -6 65 13 -74 72 -150 132 -169 131 -11 0 -55 -11 -95
-23z"/>
<path d="M18805 1760 c-18 -8 -17 -9 6 -9 15 -1 45 -8 68 -16 50 -17 52 -13 7
14 -36 23 -50 24 -81 11z"/>
<path d="M19065 3280 c-16 -31 -20 -70 -7 -70 12 0 42 56 42 79 0 30 -17 26
-35 -9z"/>
<path d="M19790 3245 c-16 -19 4 -79 33 -100 20 -14 23 -14 35 2 16 22 7 61
-20 91 -25 26 -31 27 -48 7z"/>
<path d="M19751 446 c-14 -55 -15 -89 -2 -66 10 17 25 110 18 110 -3 0 -10
-20 -16 -44z"/>
</g>
</svg>
